<?xml version="1.0" encoding="UTF-8"?>
<svg version="1.1" xmlns="http://www.w3.org/2000/svg" width="1920" height="1280">
<path d="M0 0 C633.6 0 1267.2 0 1920 0 C1920 422.4 1920 844.8 1920 1280 C1286.4 1280 652.8 1280 0 1280 C0 857.6 0 435.2 0 0 Z " fill="#FEFEFE" transform="translate(0,0)"/>
<path d="M0 0 C1.45939629 -0.0044594 2.91879018 -0.00977574 4.37818056 -0.01586872 C8.366483 -0.02997538 12.35470724 -0.03171341 16.34303105 -0.03127182 C20.65343196 -0.03292657 24.96380126 -0.04600542 29.27418518 -0.0574646 C38.6898573 -0.08026432 48.10550682 -0.08823 57.5212028 -0.09329104 C63.4080347 -0.09655435 69.2948601 -0.1030807 75.18168831 -0.11029243 C91.50238172 -0.12985291 107.8230691 -0.14625999 124.14377499 -0.14916897 C125.18714609 -0.14935654 126.2305172 -0.14954411 127.30550561 -0.14973736 C129.42039335 -0.1501036 131.53528109 -0.1504673 133.65016883 -0.15082847 C135.22477531 -0.15110269 135.22477531 -0.15110269 136.83119202 -0.15138245 C138.40773601 -0.15165327 138.40773601 -0.15165327 140.01612938 -0.15192956 C157.03231221 -0.15546839 174.04836828 -0.18247507 191.06450718 -0.21988034 C208.56316429 -0.25803625 226.06175863 -0.27732698 243.56045824 -0.27762848 C253.3738237 -0.27821146 263.18703796 -0.28660013 273.0003643 -0.31562614 C281.3593085 -0.34023781 289.71804636 -0.34735737 298.07701706 -0.33237862 C302.33467664 -0.32524916 306.59192961 -0.3258938 310.84954262 -0.34878922 C344.2384924 -0.51750931 344.2384924 -0.51750931 359.44813538 5.27415466 C360.54698447 5.69101318 360.54698447 5.69101318 361.66803253 6.11629307 C388.50875064 16.48914443 405.46620466 34.83570869 419.44813538 59.27415466 C419.9368512 60.12477478 420.42556702 60.9753949 420.92909241 61.85179138 C423.40192952 66.15838066 425.86204389 70.47202454 428.31532288 74.78977966 C431.64871406 80.64384951 435.04581375 86.45995469 438.44813538 92.27415466 C443.3191918 100.60136059 448.13646994 108.95660334 452.90907288 117.34056091 C456.71197587 124.01073203 460.57148834 130.64661181 464.44813538 137.27415466 C469.31984806 145.6028687 474.13860621 153.9591468 478.91127014 162.34495544 C482.68991968 168.97366153 486.52999106 175.5649902 490.38563538 182.14915466 C495.62060034 191.09113821 500.75241307 200.0861549 505.83241272 209.1169281 C509.38953844 215.43030938 513.01951342 221.69434312 516.71302795 227.92869568 C519.99147444 233.47160208 523.19710934 239.05409788 526.38563538 244.64915466 C534.81784106 259.44270961 543.37765534 274.16027915 551.96620178 288.86351013 C557.04442672 297.56489311 562.0837417 306.28843796 567.10096741 315.02513123 C569.83979056 319.78761233 572.58930822 324.5387356 575.44032288 329.23509216 C585.99295202 346.62840854 591.00651153 363.25640103 590.82313538 383.77415466 C590.83473694 385.0722406 590.8463385 386.37032654 590.85829163 387.70774841 C590.7726514 416.28303562 576.31446045 438.27046056 562.32167053 462.07542419 C559.1921941 467.41845263 556.10128654 472.78360342 553.01063538 478.14915466 C552.07852234 479.76624329 552.07852234 479.76624329 551.12757874 481.41600037 C549.23390244 484.70174763 547.3409085 487.98788705 545.44813538 491.27415466 C538.1662003 503.91718465 530.87767495 516.55547798 523.51063538 529.14915466 C518.43538414 537.82677708 513.42554771 546.54021034 508.44813538 555.27415466 C502.90811808 564.99531083 497.31438729 574.68310124 491.66468811 584.34104919 C485.51046796 594.86500091 479.42443542 605.42795604 473.33924866 615.9919281 C470.21133389 621.42075409 467.0795509 626.84734747 463.94813538 632.27415466 C462.69811659 634.44081049 461.44811659 636.60747716 460.19813538 638.77415466 C452.69813538 651.77415466 445.19813538 664.77415466 437.69813538 677.77415466 C437.07898254 678.84770203 436.45982971 679.92124939 435.82191467 681.02732849 C434.57720563 683.18412139 433.33128306 685.34021443 432.0841217 687.49559021 C428.86767768 693.05799786 425.6759142 698.6329011 422.52235413 704.23118591 C407.04150053 731.61860308 389.49821467 752.0507338 359.44813538 763.27415466 C358.82288428 763.51012899 358.19763319 763.74610331 357.55343509 763.98922837 C341.7213037 769.67460625 325.24129449 768.9738039 308.6743238 768.88380086 C304.39487307 768.86612697 300.11548026 768.87772281 295.83601379 768.88546753 C287.47945561 768.89607807 279.12315183 768.88029196 270.76663239 768.85532927 C261.01959973 768.82725258 251.27261702 768.82605578 241.52555065 768.82588626 C224.12973704 768.82470191 206.73403949 768.79981439 189.33827209 768.76121521 C172.48409127 768.72384236 155.62999476 768.70261673 138.77577209 768.69969177 C137.73669164 768.69950896 136.69761118 768.69932615 135.62704344 768.6991378 C134.58970058 768.69895883 133.55235772 768.69877986 132.48358023 768.69859546 C130.39462511 768.69823003 128.30566998 768.69785765 126.21671486 768.69747829 C124.6711589 768.69720002 124.6711589 768.69720002 123.09437958 768.69691613 C106.9908834 768.69334133 90.8874001 768.67489088 74.78391708 768.65498505 C68.96190702 768.64797968 63.13990002 768.64318714 57.31788667 768.6400237 C48.08560702 768.63496275 38.85338572 768.62346488 29.62113602 768.5987234 C25.4068254 768.58754773 21.19257162 768.57938438 16.97824478 768.57985687 C13.11334957 768.58016749 9.24858842 768.57111939 5.38372831 768.55488885 C3.33934487 768.54859406 1.29493866 768.55188389 -0.74945104 768.55562776 C-29.03658219 768.39448786 -53.70018703 757.15082105 -73.86436462 737.58665466 C-79.86905156 731.50751255 -84.18472481 725.11186033 -88.24961853 717.63792419 C-90.35671575 713.81323067 -92.56493673 710.04755454 -94.75718689 706.27122498 C-96.70944869 702.90547895 -98.6515953 699.53408442 -100.59092712 696.16087341 C-104.40480481 689.52824617 -108.2272714 682.90060727 -112.05186462 676.27415466 C-115.81557502 669.75186305 -119.57831088 663.22901698 -123.33702087 656.70384216 C-129.35933791 646.25209267 -135.398558 635.81115918 -141.48936462 625.39915466 C-146.9110764 616.12915689 -152.25391378 606.81583714 -157.5710907 597.48570251 C-162.77231591 588.36132626 -168.0321434 579.27282692 -173.33531189 570.20726013 C-179.48953204 559.68330842 -185.57556458 549.12035329 -191.66075134 538.55638123 C-194.78866611 533.12755524 -197.9204491 527.70096185 -201.05186462 522.27415466 C-202.30188341 520.10749884 -203.55188341 517.94083217 -204.80186462 515.77415466 C-205.42061462 514.70165466 -206.03936462 513.62915466 -206.67686462 512.52415466 C-213.55186462 500.607488 -220.42686462 488.69082133 -227.30186462 476.77415466 C-227.92142029 475.7003656 -228.54097595 474.62657654 -229.17930603 473.52024841 C-230.42154424 471.36681957 -231.66340999 469.21317582 -232.90489197 467.05931091 C-235.80316266 462.03208712 -238.70484535 457.00694465 -241.6204071 451.98973083 C-242.6460209 450.22440256 -243.67041127 448.45836996 -244.69444275 446.69212341 C-245.97457928 444.48499146 -247.25697129 442.27916543 -248.542099 440.07493591 C-253.58372769 431.37325192 -258.4139812 422.82065685 -261.30186462 413.14915466 C-261.50940369 412.4981781 -261.71694275 411.84720154 -261.93077087 411.17649841 C-268.7025148 389.11371981 -266.00126983 360.35904115 -255.38780212 339.99290466 C-252.87704124 335.36083411 -250.21760584 330.81813943 -247.55186462 326.27415466 C-246.64800772 324.70862105 -245.74566711 323.14221106 -244.84483337 321.57493591 C-242.55165045 317.59078271 -240.24305251 313.61581846 -237.92979431 309.64329529 C-236.13994268 306.5659175 -234.35861859 303.48364832 -232.57725525 300.40135193 C-228.53711531 293.41146748 -224.47856729 286.43263949 -220.40464783 279.46238708 C-214.91666382 270.07226908 -209.47187673 260.66021973 -204.09117126 251.20823669 C-199.70323818 243.51176289 -195.23588238 235.86277017 -190.76280212 228.21556091 C-186.98848083 221.7559846 -183.25301345 215.2759054 -179.55186462 208.77415466 C-174.68195033 200.21925174 -169.73294758 191.71255631 -164.76280212 183.21556091 C-160.98848083 176.7559846 -157.25301345 170.2759054 -153.55186462 163.77415466 C-148.68195033 155.21925174 -143.73294758 146.71255631 -138.76280212 138.21556091 C-134.98848083 131.7559846 -131.25301345 125.2759054 -127.55186462 118.77415466 C-123.26631892 111.24580298 -118.92560331 103.75160579 -114.55186462 96.27415466 C-110.11712161 88.6917828 -105.71512454 81.09253517 -101.36436462 73.46165466 C-100.63394958 72.18391174 -100.63394958 72.18391174 -99.88877869 70.88035583 C-97.45808949 66.62664974 -95.04046368 62.36626737 -92.64170837 58.09446716 C-87.85927937 49.62546347 -83.16633355 41.47629852 -76.55186462 34.27415466 C-75.75651306 33.38727966 -74.9611615 32.50040466 -74.14170837 31.58665466 C-54.73614346 11.00932515 -28.07691335 -0.05441064 0 0 Z " fill="#68BD45" transform="translate(796.5518646240234,255.72584533691406)"/>
<path d="M0 0 C7.69703003 5.38059051 12.93089179 12.48712495 14.80078125 21.74609375 C16.40505423 31.34202288 12.90862831 38.86541542 7.80078125 46.74609375 C5.3860477 49.50436671 2.77110259 51.61202375 -0.19921875 53.74609375 C-18.38471051 67.40978756 -32.8674902 84.06467048 -44.19921875 103.74609375 C-44.85664062 104.87273437 -45.5140625 105.999375 -46.19140625 107.16015625 C-67.98064303 145.53633696 -73.26815978 192.86491364 -62.03125 235.4375 C-60.92241557 239.27004244 -59.58413122 243.00440042 -58.19921875 246.74609375 C-57.75162903 248.05260749 -57.30637084 249.35992198 -56.86328125 250.66796875 C-49.77424401 271.10810915 -38.26019316 289.39428643 -24.19921875 305.74609375 C-23.29042969 306.83857422 -23.29042969 306.83857422 -22.36328125 307.953125 C-18.33997277 312.71373662 -13.96708033 316.74537945 -9.19921875 320.74609375 C-8.37164063 321.48472656 -7.5440625 322.22335937 -6.69140625 322.984375 C29.43398632 354.5312011 75.39914692 366.19418386 122.51074219 363.59667969 C158.4742506 361.00990863 195.61130722 344.40241701 221.80078125 319.74609375 C222.80238281 318.80805908 222.80238281 318.80805908 223.82421875 317.85107422 C255.81151513 287.60315926 277.37150238 245.1030718 278.91064453 200.56713867 C279.48006648 167.29423521 273.62643138 137.16247395 257.80078125 107.74609375 C257.31738281 106.83150391 257.31738281 106.83150391 256.82421875 105.8984375 C249.36610341 91.86141553 239.71524191 80.19336092 228.80078125 68.74609375 C228.07375 67.96621094 227.34671875 67.18632812 226.59765625 66.3828125 C222.24202113 61.84165959 217.6053036 57.98583126 212.61328125 54.18359375 C207.44471397 50.22685797 203.1017539 46.45788912 199.80078125 40.74609375 C199.18203125 39.71484375 198.56328125 38.68359375 197.92578125 37.62109375 C195.11173695 30.31797878 195.69127749 20.12316859 198.57421875 12.90234375 C202.59524273 5.83353726 208.43798957 -0.19577625 215.93359375 -3.4765625 C224.20079627 -5.71794302 233.48552591 -5.44591415 241.28515625 -1.765625 C251.46834503 4.35377571 260.27232015 12.54712396 268.80078125 20.74609375 C269.39681152 21.31489258 269.9928418 21.88369141 270.60693359 22.46972656 C279.49441425 30.99272194 287.57084745 39.77349446 294.80078125 49.74609375 C295.25936523 50.37628418 295.71794922 51.00647461 296.19042969 51.65576172 C332.17998897 101.54191066 348.22116099 164.0484385 339.23828125 225.12109375 C335.84948294 245.66597589 329.89127369 265.5808457 321.80078125 284.74609375 C321.49591797 285.47554199 321.19105469 286.20499023 320.87695312 286.95654297 C297.16351809 342.79579252 249.0492269 386.13917425 193.66796875 409.24609375 C145.74774849 428.18128908 91.54991047 432.0301937 41.80078125 417.74609375 C41.05103027 417.53114258 40.3012793 417.31619141 39.52880859 417.09472656 C-19.61774774 399.65958834 -70.48617397 358.44153812 -100.37109375 304.63623047 C-102.4571089 300.72967583 -104.39586904 296.76352149 -106.26367188 292.74853516 C-107.21617849 290.70979318 -108.19937636 288.68765567 -109.18359375 286.6640625 C-118.49631449 267.09336182 -124.14045832 246.15324953 -127.19921875 224.74609375 C-127.37275879 223.60309814 -127.37275879 223.60309814 -127.54980469 222.43701172 C-130.87791954 199.92532684 -130.13966675 176.73253897 -126.60058594 154.30908203 C-126.2402967 152.00840295 -125.92018816 149.70670055 -125.61328125 147.3984375 C-117.871321 93.14606454 -83.72262036 38.67191365 -40.19921875 5.74609375 C-39.34714844 5.08867187 -38.49507812 4.43125 -37.6171875 3.75390625 C-25.97215084 -4.86807174 -13.12896679 -7.48560984 0 0 Z " fill="#FEFEFE" transform="translate(852.19921875,434.25390625)"/>
<path d="M0 0 C9.70187559 5.08011596 16.42146238 12.69748022 19.984375 23.0390625 C21.17845468 27.66377225 21.13544232 32.16941378 21.13827515 36.91163635 C21.14484853 38.25291663 21.14484853 38.25291663 21.1515547 39.62129349 C21.16491078 42.61805525 21.17111441 45.61478763 21.17724609 48.61157227 C21.18514962 50.76030102 21.19341872 52.90902846 21.20202637 55.05775452 C21.22821896 62.11531308 21.24355192 69.1728775 21.2578125 76.23046875 C21.26317344 78.66238852 21.26855095 81.09430825 21.27394485 83.52622795 C21.2955701 93.64457593 21.31430568 103.76292234 21.32556725 113.88128757 C21.34179951 128.36918105 21.3749642 142.85680607 21.43196809 157.34459835 C21.4707057 167.53843295 21.49020452 177.73219585 21.49548781 187.9261021 C21.49913616 194.01086523 21.51110305 200.09534183 21.54359055 206.1800251 C21.57373782 211.90845543 21.57995899 217.63642685 21.56820679 223.36491966 C21.56798661 225.46106301 21.57624519 227.55722808 21.59386063 229.65329742 C21.70382176 243.49729668 20.80508063 255.07685889 11.7109375 266.29296875 C8.51880588 269.52121045 4.94380375 271.85149515 0.984375 274.0390625 C0.06205078 274.55146484 0.06205078 274.55146484 -0.87890625 275.07421875 C-8.5857869 278.62235438 -18.46038061 278.32417045 -26.328125 275.4765625 C-36.54349412 270.66242303 -42.79985426 263.88689203 -47.07253265 253.45976448 C-48.26069672 249.15015983 -48.30549781 245.22883526 -48.29650879 240.78048706 C-48.30542216 239.39504784 -48.30542216 239.39504784 -48.31451559 237.98161995 C-48.33183844 234.89119279 -48.3349017 231.80092105 -48.33789062 228.71044922 C-48.34715068 226.49260631 -48.3572005 224.27476658 -48.36798096 222.05693054 C-48.39419904 216.03394612 -48.40711321 210.01100625 -48.41600227 203.98797369 C-48.42186907 200.22255831 -48.43007973 196.45715503 -48.43901062 192.69174576 C-48.46322265 182.25338574 -48.48398817 171.81503289 -48.4907608 161.37664604 C-48.49119994 160.70922776 -48.49163907 160.04180948 -48.49209151 159.3541664 C-48.49252806 158.68520731 -48.49296462 158.01624823 -48.4934144 157.32701766 C-48.49430131 155.9715925 -48.49519444 154.61616734 -48.49609375 153.26074219 C-48.49653661 152.58841337 -48.49697947 151.91608455 -48.49743575 151.22338213 C-48.50532516 140.33888259 -48.540216 129.45465137 -48.58681279 118.57025538 C-48.63433663 107.37836907 -48.65865382 96.18658034 -48.66149664 84.99458325 C-48.66358969 78.71753334 -48.67533943 72.44086202 -48.71113586 66.1639061 C-48.74417453 60.2556441 -48.74837158 54.34804371 -48.73085785 48.43972206 C-48.72932114 46.27746237 -48.7379494 44.11516655 -48.75777435 41.95299721 C-48.87761601 28.06232615 -48.26636184 18.00924343 -38.765625 7.1015625 C-28.54991663 -2.22483197 -12.90124899 -5.18960016 0 0 Z " fill="#FEFEFE" transform="translate(972.015625,383.9609375)"/>
</svg>
