<?xml version="1.0" encoding="UTF-8"?>
<svg version="1.1" xmlns="http://www.w3.org/2000/svg" width="512" height="512">
<path d="M0 0 C168.96 0 337.92 0 512 0 C512 168.96 512 337.92 512 512 C343.04 512 174.08 512 0 512 C0 343.04 0 174.08 0 0 Z " fill="#FEFEFE" transform="translate(0,0)"/>
<path d="M0 0 C6.13615695 4.36611167 11.82377873 10.03383618 14.25 17.3125 C14.39880933 20.09695155 14.48107 22.83992385 14.5 25.625 C14.5309375 26.74551758 14.5309375 26.74551758 14.5625 27.88867188 C14.59774569 32.9067763 13.56860108 35.79632373 11.25 40.3125 C11.6487216 45.23854985 14.03935364 49.62708325 16.07421875 54.05859375 C16.45810257 54.90615738 16.84198639 55.75372101 17.23750305 56.62696838 C18.46593163 59.33690418 19.70138175 62.04356431 20.9375 64.75 C22.54776455 68.28937112 24.1551595 71.83003943 25.76171875 75.37109375 C26.14939423 76.22440277 26.5370697 77.07771179 26.93649292 77.95687866 C30.14336976 85.03299724 33.23521089 92.15246926 36.25 99.3125 C37.07862549 99.33739502 37.90725098 99.36229004 38.76098633 99.38793945 C48.80778891 99.77264642 54.85458616 102.45209012 61.6875 109.8125 C66.39744839 115.21704684 67.65977351 119.89109528 67.6875 127 C67.69209229 127.70680908 67.69668457 128.41361816 67.70141602 129.1418457 C67.58527973 134.64293921 66.29463687 138.54791854 63.24609375 143.19921875 C61.8594564 146.14106506 62.27596694 147.18183012 63.25 150.3125 C64.89529159 153.25587146 66.78440964 156.02037711 68.68359375 158.8046875 C69.23555923 159.62768341 69.78752472 160.45067932 70.35621643 161.2986145 C72.12577622 163.93340616 73.90635857 166.56052742 75.6875 169.1875 C77.42804602 171.77204253 79.16636095 174.35807256 80.90414429 176.94447327 C82.04592627 178.63871895 83.19209128 180.33001931 84.34268188 182.01829529 C86.99578733 185.91626795 89.59168359 189.82447798 92.03857422 193.85571289 C92.47138199 194.55298492 92.90418976 195.25025696 93.35011292 195.96865845 C94.14152121 197.25104671 94.91325667 198.54590362 95.65953064 199.85507202 C97.173448 202.27779574 98.52817071 204.03500952 101.2348938 205.07554626 C104.69811162 205.83254211 107.98057773 206.01763987 111.515625 206.01171875 C118.01832007 206.53547139 122.01444658 210.63109885 126.25 215.3125 C132.06630536 223.22913784 132.34494844 231.75256903 131.25 241.3125 C128.9788272 248.93260315 123.09848929 254.35713018 116.44921875 258.41015625 C109.36157767 261.673203 100.40431327 261.72486304 93.11328125 259.24609375 C86.8585826 256.11447792 82.74707374 252.34316798 79.25 246.3125 C78.63125 245.28125 78.0125 244.25 77.375 243.1875 C74.62949587 235.95987767 75.06466505 226.92876025 78.1875 219.9375 C81.79847845 213.66743426 87.30122841 209.27834773 93.25 205.3125 C92.9411084 204.8491626 92.6322168 204.3858252 92.31396484 203.90844727 C74.78198242 177.61047363 74.78198242 177.61047363 57.25 151.3125 C56.1818103 151.73583618 56.1818103 151.73583618 55.09204102 152.16772461 C46.4387984 155.47796682 38.51946435 157.16600649 29.3828125 154.46484375 C22.16104675 151.22712202 16.64833951 145.89970857 13.3125 138.6875 C10.91710083 131.03427498 10.93853301 122.20273945 14.25 114.875 C18.39050448 107.75520902 23.48969924 103.78838974 31.25 101.3125 C31.02306961 100.81296814 30.79613922 100.31343628 30.56233215 99.79876709 C28.17498762 94.54263499 25.79026594 89.28531844 23.40698242 84.02734375 C22.5202685 82.07196807 21.63291297 80.1168832 20.74487305 78.16210938 C11.28160625 57.32907633 11.28160625 57.32907633 7.25 47.3125 C4.29700106 47.3125 2.48927232 48.85241306 -0.0625 50.3125 C-6.73289027 53.67565486 -12.37205972 54.58962789 -19.75 53.3125 C-23.33511482 51.97325942 -26.48758433 50.29101598 -29.75 48.3125 C-34.496603 56.00610333 -38.82130084 63.89432273 -43.0625 71.875 C-43.72318924 73.11371316 -44.38407961 74.35231907 -45.04516602 75.59082031 C-46.9505924 79.16269307 -48.85094602 82.73723496 -50.75 86.3125 C-51.26723633 87.28622559 -51.78447266 88.25995117 -52.31738281 89.26318359 C-54.80140158 93.94288214 -57.2793913 98.62570842 -59.75 103.3125 C-58.8528125 103.42464844 -57.955625 103.53679687 -57.03125 103.65234375 C-49.57806723 105.15185314 -44.08892457 110.22861788 -39.90234375 116.38671875 C-36.31986423 122.37370994 -35.98328832 128.48425601 -36.75 135.3125 C-37.82257608 139.10291591 -39.2242658 142.68505163 -40.75 146.3125 C-41.92713443 149.8439033 -41.57975329 150.34242935 -40.10693359 153.609375 C-39.72258148 154.47457764 -39.33822937 155.33978027 -38.94223022 156.23120117 C-38.51527863 157.16552979 -38.08832703 158.0998584 -37.6484375 159.0625 C-37.21496002 160.03098877 -36.78148254 160.99947754 -36.33486938 161.99731445 C-34.94064507 165.10654368 -33.53301043 168.20949305 -32.125 171.3125 C-31.19833546 173.37330096 -30.27254387 175.43449469 -29.34765625 177.49609375 C-27.23227467 182.20518274 -25.11438253 186.9130148 -22.96838379 191.60824585 C-22.10486938 193.52485245 -21.26389038 195.45168506 -20.43884277 197.38516235 C-20.00769165 198.38163788 -19.57654053 199.3781134 -19.13232422 200.40478516 C-18.74744843 201.31265778 -18.36257263 202.2205304 -17.96603394 203.15591431 C-16.85726859 205.62420479 -16.85726859 205.62420479 -13.734375 206.6484375 C-12.13335937 206.66777344 -12.13335937 206.66777344 -10.5 206.6875 C-2.37759099 207.30241684 3.11864729 209.66473979 8.625 215.75 C13.04366734 221.11183318 14.79039003 226.20667453 14.6875 233.125 C14.68065186 233.82987549 14.67380371 234.53475098 14.66674805 235.26098633 C14.43887355 242.67842937 12.62203154 247.57554053 7.8125 253.125 C0.70659207 259.19101896 -3.17806111 261.67226807 -12.5 261.6875 C-13.2734375 261.71199219 -14.046875 261.73648437 -14.84375 261.76171875 C-22.16179853 261.79855456 -28.23659162 259.37273895 -33.5 254.1875 C-40.12192367 247.02006317 -41.43707329 239.13514045 -41.13671875 229.5859375 C-40.6060129 225.09370011 -39.35483414 221.97126374 -36.75 218.3125 C-36.028125 217.260625 -35.30625 216.20875 -34.5625 215.125 C-31.01536851 211.57786851 -27.19238357 209.5482423 -22.75 207.3125 C-27.98054751 194.37834998 -33.56510014 181.62837872 -39.29858398 168.91040039 C-40.36753778 166.53670458 -41.43204477 164.16105381 -42.49609375 161.78515625 C-42.82411484 161.06135269 -43.15213593 160.33754913 -43.49009705 159.59181213 C-45.75 154.53880076 -45.75 154.53880076 -45.75 152.3125 C-46.43707031 152.66183594 -47.12414062 153.01117188 -47.83203125 153.37109375 C-48.73308594 153.82613281 -49.63414062 154.28117188 -50.5625 154.75 C-51.45582031 155.20246094 -52.34914063 155.65492188 -53.26953125 156.12109375 C-59.28872998 159.01220495 -65.18443481 159.10637553 -71.75 158.3125 C-76.00076098 156.6960798 -79.86360038 154.66534734 -83.75 152.3125 C-84.02223389 153.02680176 -84.29446777 153.74110352 -84.57495117 154.47705078 C-85.75270271 157.31902178 -87.09325761 159.97125961 -88.55078125 162.6796875 C-89.10999268 163.71988037 -89.6692041 164.76007324 -90.24536133 165.83178711 C-91.14484497 167.49286499 -91.14484497 167.49286499 -92.0625 169.1875 C-92.67826904 170.32904541 -93.29403809 171.47059082 -93.9284668 172.64672852 C-98.74954005 181.56180869 -103.7041442 190.39851829 -108.74926758 199.18896484 C-109.26126709 200.08437988 -109.7732666 200.97979492 -110.30078125 201.90234375 C-110.75106689 202.68472412 -111.20135254 203.46710449 -111.6652832 204.27319336 C-112.87576457 206.41259807 -112.87576457 206.41259807 -113.75 209.3125 C-113.028125 209.539375 -112.30625 209.76625 -111.5625 210 C-105.24724089 212.94712092 -101.4268575 218.79109926 -98.5 224.9375 C-96.44345137 234.19196884 -97.33271549 241.37932573 -101.9921875 249.6796875 C-106.90858635 257.04336045 -113.25805001 260.13728271 -121.75 262.3125 C-129.03107026 263.48009505 -135.63866178 261.02068569 -141.9375 257.5625 C-147.75293074 252.9101554 -152.25953169 247.76484156 -153.75 240.3125 C-154.78687691 230.21255085 -153.22390457 223.33036216 -147.5 215.0625 C-143.49047546 211.05297546 -139.14213779 208.10987926 -133.75 206.3125 C-132.20699219 206.55613281 -132.20699219 206.55613281 -130.6328125 206.8046875 C-126.19236172 207.25704111 -122.7509876 207.46376993 -118.75 205.3125 C-113.6224419 199.74912786 -110.61378735 192.40905049 -107.37792969 185.65087891 C-104.6922228 180.14332702 -101.7020984 174.80537228 -98.75 169.4375 C-97.21968704 166.60172782 -95.69478862 163.7631613 -94.17382812 160.92236328 C-93.22237896 159.1783661 -92.24682091 157.44731332 -91.24804688 155.72998047 C-90.78462891 154.93221191 -90.32121094 154.13444336 -89.84375 153.3125 C-89.42802734 152.61382812 -89.01230469 151.91515625 -88.58398438 151.1953125 C-87.48215899 149.16913304 -87.48215899 149.16913304 -88.25 146.1875 C-88.745 145.23875 -89.24 144.29 -89.75 143.3125 C-93.03748987 136.9904041 -93.80878814 131.42026631 -92.75 124.3125 C-89.60562822 115.09123949 -84.94670193 109.51897566 -76.8125 104.5 C-73.75 103.3125 -73.75 103.3125 -69.82714844 103.16088867 C-66.16975088 102.72704962 -65.90055782 102.49579655 -63.37988281 99.42700195 C-62.70756197 98.15031593 -62.06699303 96.8565793 -61.453125 95.55078125 C-61.09686539 94.85636932 -60.74060577 94.1619574 -60.37355042 93.44650269 C-59.2209808 91.18562965 -58.11065655 88.90671215 -57 86.625 C-56.21739465 85.06857758 -55.43181553 83.51364699 -54.64331055 81.96020508 C-53.45964336 79.62637374 -52.27858978 77.29155689 -51.10917664 74.95054626 C-47.34800724 67.42895687 -43.25735398 60.11228085 -39.01464844 52.85083008 C-38.56250977 52.04798584 -38.11037109 51.2451416 -37.64453125 50.41796875 C-37.05442261 49.39932739 -37.05442261 49.39932739 -36.45239258 48.36010742 C-35.51877845 45.63844537 -35.91917883 44.0411002 -36.75 41.3125 C-37.430625 40.19875 -38.11125 39.085 -38.8125 37.9375 C-42.32191242 31.12511119 -41.95935483 22.6440834 -39.9375 15.40234375 C-36.80190963 8.35815287 -31.30531165 2.71997041 -24.48828125 -0.8828125 C-17.39564989 -2.96709504 -6.81457964 -3.23071242 0 0 Z " fill="#317CB6" transform="translate(266.75,53.6875)"/>
<path d="M0 0 C50.59394172 0 50.59394172 0 63.3125 11.625 C73.29639952 22.25562985 73.5409236 34.8853378 73.13183594 48.57714844 C72.53261769 59.58944827 68.24624141 69.36005952 60.125 76.875 C42.85690263 90.88061333 21.44596834 87 0 87 C0 58.29 0 29.58 0 0 Z " fill="#2A78B5" transform="translate(142,347)"/>
<path d="M0 0 C10.56 0 21.12 0 32 0 C36.50117451 11.25293627 36.50117451 11.25293627 37.88769531 15.40429688 C38.359394 16.8100573 38.359394 16.8100573 38.84062195 18.24421692 C39.16649796 19.22581284 39.49237396 20.20740875 39.828125 21.21875 C40.17869461 22.26782028 40.52926422 23.31689056 40.89045715 24.39775085 C42.01380919 27.76401158 43.1322501 31.13187535 44.25 34.5 C44.62961884 35.64062897 45.00923767 36.78125793 45.40036011 37.95645142 C50.81962577 54.24410583 56.07692408 70.55483149 61 87 C52.42 87 43.84 87 35 87 C31 74.375 31 74.375 31 71 C21.43 71 11.86 71 2 71 C1.34 74.63 0.68 78.26 0 82 C-0.33 83.65 -0.66 85.3 -1 87 C-9.58 87 -18.16 87 -27 87 C-26.25981654 81.81871577 -25.43678228 77.8041477 -23.82275391 72.93823242 C-23.60309464 72.27052322 -23.38343536 71.60281403 -23.15711975 70.91487122 C-22.43575344 68.72654701 -21.70617249 66.54105671 -20.9765625 64.35546875 C-20.46895929 62.82019535 -19.96191917 61.28473568 -19.45541382 59.74909973 C-18.12346974 55.7153271 -16.78472671 51.68384529 -15.4442749 47.65289307 C-13.30452628 41.21388048 -11.1760338 34.77113443 -9.04587936 28.32894325 C-8.30597565 26.09405513 -7.56372059 23.85996017 -6.82095337 21.62602234 C-6.35929066 20.23400634 -5.89765014 18.84198299 -5.43603516 17.44995117 C-5.03712067 16.24972824 -4.63820618 15.04950531 -4.22720337 13.81291199 C-2.7519719 9.22937848 -1.3836058 4.61201933 0 0 Z " fill="#2B79B6" transform="translate(319,347)"/>
<path d="M0 0 C0.68449219 0.20439697 1.36898437 0.40879395 2.07421875 0.61938477 C3.97265625 1.265625 3.97265625 1.265625 6.9375 2.75 C8.45075918 6.45403915 7.38682296 8.81224745 5.89257812 12.43359375 C5.59802734 13.11550781 5.30347656 13.79742187 5 14.5 C4.70931641 15.19738281 4.41863281 15.89476562 4.11914062 16.61328125 C3.40198297 18.32975695 2.67106598 20.04047232 1.9375 21.75 C-1.38252568 21.14689128 -4.44444624 20.30150106 -7.625 19.1875 C-13.35447067 17.42988794 -19.10740211 17.02445801 -25.0625 17.75 C-27.22181527 19.5772323 -27.22181527 19.5772323 -27.6875 22.0625 C-27.34944675 24.76856021 -27.34944675 24.76856021 -25.58984375 25.93481445 C-19.53837943 29.56433959 -13.30680573 32.75726909 -6.953125 35.82421875 C-0.10774149 39.29093226 4.85381803 43.59160807 7.9375 50.75 C8.9171558 60.09282265 8.98445395 69.04050154 2.9375 76.75 C0.49090252 79.24542093 -2.0328891 81.0218797 -5.0625 82.75 C-5.73410156 83.1625 -6.40570313 83.575 -7.09765625 84 C-18.29564662 89.68786813 -33.78313228 87.66225633 -45.53125 84.6015625 C-48.0625 83.75 -48.0625 83.75 -52.0625 81.75 C-52.0625 74.82 -52.0625 67.89 -52.0625 60.75 C-48.0715625 62.235 -48.0715625 62.235 -44 63.75 C-34.99151252 66.90718019 -25.39861912 68.86203971 -16.0625 65.75 C-15.39326238 62.46256453 -15.39326238 62.46256453 -16.0625 58.75 C-17.55808 57.35672483 -17.55808 57.35672483 -19.55078125 56.296875 C-20.27797363 55.8738208 -21.00516602 55.4507666 -21.75439453 55.01489258 C-26.1230242 52.6207874 -30.53164995 50.31716111 -34.97070312 48.05664062 C-41.87992998 44.4743093 -46.74104745 41.06598102 -50.10546875 33.8671875 C-52.19748099 27.05320479 -52.53826008 18.85803418 -50.10546875 12.0859375 C-45.87868398 4.92053093 -39.26270029 0.96219838 -31.39453125 -1.30859375 C-21.05328403 -3.79607336 -10.11685882 -3.08421118 0 0 Z " fill="#2B79B5" transform="translate(279.0625,348.25)"/>
<path d="M0 0 C4.61529099 3.37704218 8.81579707 8.04171188 10.921875 13.40625 C11.82144071 20.72829647 11.53202326 27.43488805 6.921875 33.40625 C1.61943922 38.99650067 -2.97423264 42.35905996 -10.765625 42.84375 C-17.50004578 42.67313129 -23.1977087 40.30452012 -27.96875 35.50390625 C-32.62398715 29.6170651 -34.83704119 23.99541194 -34.078125 16.40625 C-32.13397645 8.77731264 -28.71191196 3.69943665 -22.078125 -0.59375 C-14.73307927 -3.66531458 -7.01865651 -3.93044764 0 0 Z " fill="#FBFDFD" transform="translate(318.078125,161.59375)"/>
<path d="M0 0 C4.4005959 3.30234047 6.84791022 7.85988293 9.26953125 12.703125 C10.25156867 20.78389006 8.89908907 26.98905423 4.26953125 33.703125 C0.40818244 38.0092365 -4.03292202 40.406084 -9.78125 41.0390625 C-16.55277028 41.12015855 -22.31419628 41.13237743 -27.73046875 36.703125 C-33.28093562 30.75530927 -36.21649069 25.16039006 -35.97265625 16.96484375 C-35.21201908 9.86147405 -30.91913281 4.32916284 -25.73046875 -0.296875 C-17.62307634 -5.34296986 -8.10851859 -4.44372357 0 0 Z " fill="#FCFDFE" transform="translate(266.73046875,60.296875)"/>
<path d="M0 0 C5.84632185 2.66155508 9.6508666 7.22851712 12.8828125 12.6640625 C14.56969582 19.91766079 13.94103845 26.7366832 10.5078125 33.3515625 C7.37354973 38.27683256 3.17245158 41.23751222 -2.4453125 42.9453125 C-8.98621384 44.24350666 -15.71973 43.87852228 -21.4921875 40.3515625 C-27.36054245 35.13002022 -31.44528808 29.03220782 -31.9921875 21.0390625 C-31.72902105 14.61341501 -29.12840031 8.84159908 -24.44921875 4.421875 C-17.00042295 -1.24952144 -9.27231708 -2.41254645 0 0 Z " fill="#FCFDFE" transform="translate(262.4921875,266.6484375)"/>
<path d="M0 0 C4.84748703 3.56577859 8.20674136 8.76173125 9.3046875 14.6953125 C10.08899355 21.41977257 8.99341727 26.97401734 5.3046875 32.6953125 C1.22568257 37.12448723 -2.98484132 40.36715301 -9.05078125 41.1015625 C-16.39049953 41.28112747 -21.98901573 41.18827758 -27.9609375 36.40625 C-33.10590787 31.33080626 -35.37005767 26.00206993 -36.0703125 18.8828125 C-35.83088396 11.91278174 -32.92392791 6.47590498 -27.8828125 1.7578125 C-19.36303473 -5.03285908 -9.32137826 -5.08174827 0 0 Z " fill="#FCFDFE" transform="translate(383.6953125,267.3046875)"/>
<path d="M0 0 C5.17761385 3.03106144 9.41303597 7.84726364 11.625 13.4375 C12.4885639 21.02882917 12.46017516 28.23094475 7.625 34.4375 C3.2559343 39.0653966 -0.98173805 42.02474727 -7.42578125 42.80859375 C-14.78894623 42.9585025 -19.81405081 42.48452261 -25.375 37.4375 C-30.19648255 32.60365467 -32.66103994 28.49579474 -32.6875 21.625 C-32.52911706 13.47817741 -30.25058201 8.31308201 -24.375 2.4375 C-17.40707479 -2.79654615 -7.9537371 -3.51975722 0 0 Z " fill="#FDFDFE" transform="translate(212.375,163.5625)"/>
<path d="M0 0 C6.01105844 3.55425655 9.44733597 8.80685907 11.5625 15.375 C12.56740475 22.05394012 11.18869004 27.6950386 7.5625 33.375 C3.58388282 37.99825388 -1.4005095 41.25864448 -7.4375 42.375 C-14.79514374 42.54610799 -20.35548203 40.9433483 -26.0625 36.1875 C-31.14503758 30.16870549 -33.1576236 25.00885041 -32.81640625 17.05078125 C-31.84700791 10.20503009 -28.53599851 5.93709389 -23.31640625 1.6015625 C-16.50860555 -2.84261509 -7.41181708 -3.38181768 0 0 Z " fill="#FDFDFE" transform="translate(151.4375,267.625)"/>
<path d="M0 0 C15.2132964 0 15.2132964 0 20 4 C26.75765638 12.39638805 26.89521591 21.65013321 26 32 C24.51801804 38.86792783 21.86661764 43.1687395 16 47 C11 49 11 49 0 49 C0 32.83 0 16.66 0 0 Z " fill="#FBFCFD" transform="translate(165,366)"/>
<path d="M0 0 C1.66300126 3.04630783 2.60926983 5.95836385 3.4375 9.32421875 C3.69273437 10.35353516 3.94796875 11.38285156 4.2109375 12.44335938 C4.47132813 13.51392578 4.73171875 14.58449219 5 15.6875 C5.26039063 16.73873047 5.52078125 17.78996094 5.7890625 18.87304688 C7.27395883 24.89887618 8.67928283 30.93613031 10 37 C4.06 37 -1.88 37 -8 37 C-7.44812904 30.74339547 -6.35730281 25.07036625 -4.5625 19.0625 C-2.73543392 12.74130895 -1.15074212 6.48600103 0 0 Z " fill="#F2F7FA" transform="translate(335,362)"/>
</svg>
